<svg width="278" height="72" viewBox="0 0 278 72" fill="none" xmlns="http://www.w3.org/2000/svg">
<g clip-path="url(#clip0_369_823)">
<path d="M198.69 10.2851V0.327271L90.0352 14.7273V71.7862L177.648 59.9433V69.4516L277.528 57.1636V0.493089L198.69 10.2851ZM272.994 53.1578L182.182 64.3156V54.7462L94.5646 66.5891V18.7244L194.147 5.51563V15.4298L272.994 5.63782V53.1578Z" fill="#D4FF36"/>
<path d="M103.096 49.6189L108.472 48.9207C108.472 50.7186 109.606 50.9193 110.527 50.8015C111.016 50.7701 111.475 50.5571 111.815 50.2042C112.155 49.8514 112.351 49.3843 112.364 48.8946C112.364 47.9302 112.19 47.3411 111.007 45.7397L105.718 38.496C103.619 35.6117 103.358 33.7615 103.358 31.9506C103.358 27.9622 106.286 24.9687 110.44 24.4495C114.507 23.9215 117.422 26.4742 117.422 30.7287L112.146 31.4182C112.146 29.7513 111.138 29.4895 110.352 29.5898C109.904 29.6222 109.486 29.8263 109.184 30.1596C108.883 30.4929 108.721 30.9296 108.734 31.3789C108.734 32.1251 109.214 33.1593 110.003 34.2371L115.292 41.3935C117.391 44.2778 117.74 46.0277 117.74 48.3098C117.74 52.4727 114.725 55.4967 110.44 56.0553C106.155 56.6138 103.096 54.048 103.096 49.6189Z" fill="#D4FF36"/>
<path d="M120.101 23.5156L127.183 22.5905C131.381 22.0451 134.309 24.5542 134.309 29.7731V37.0909C134.309 42.3273 131.381 45.4516 127.183 45.9971L125.525 46.2153V53.7556L120.101 54.4625V23.5156ZM126.485 40.9702C127.575 40.8262 129.02 40.3331 129.02 37.7018V30.5062C129.02 27.9185 127.667 27.744 126.485 27.888L125.525 28.0102V41.088L126.485 40.9702Z" fill="#D4FF36"/>
<path d="M137.154 45.1375V28.5251C137.154 24.096 140.082 20.6487 144.324 20.0945C148.565 19.5404 151.493 22.2284 151.493 26.64V43.2524C151.493 47.616 148.522 51.1069 144.324 51.6393C140.126 52.1716 137.154 49.5185 137.154 45.1375ZM144.324 46.4465C145.066 46.3505 146.069 46.0102 146.069 44.16V27.1418C146.069 25.3004 145.148 25.2044 144.324 25.3091C143.499 25.4138 142.53 25.7455 142.53 27.6044V44.6225C142.53 46.4509 143.538 46.5382 144.324 46.4378V46.4465Z" fill="#D4FF36"/>
<path d="M154.861 18.9818L161.943 18.0611C166.141 17.5113 169.069 20.0247 169.069 25.2393V32.3389C169.069 35.4545 168.066 37.8196 166.316 39.3644L169.2 48.0611L163.388 48.816L161.42 41.5331L160.281 41.6815V49.2218L154.861 49.9287V18.9818ZM161.245 36.4364C162.336 36.2967 163.737 35.808 163.737 33.1767V25.9811C163.737 23.3935 162.428 23.2145 161.245 23.3629L160.281 23.4895V36.5542L161.245 36.4364Z" fill="#D4FF36"/>
<path d="M174.624 21.6655L170.95 22.1455V16.9091L183.709 15.2204V20.4829L180.044 20.9455V46.6473L174.624 47.3542V21.6655Z" fill="#D4FF36"/>
<path d="M187.907 24.8945L193.414 24.1745L195.775 45.6524L198.136 23.5636L203.691 22.8393L198.659 54.4407L192.873 55.1913L187.907 24.8945Z" fill="#D4FF36"/>
<path d="M208.543 22.2022L214.312 21.4516L219.78 51.6829L214.404 52.3855L213.614 47.2713L209.198 47.8473L208.369 53.1709L202.988 53.8735L208.543 22.2022ZM212.946 42.7636L211.458 31.2567L209.892 43.1564L212.946 42.7636Z" fill="#D4FF36"/>
<path d="M222.795 25.6058L219.125 26.0858V20.8233L231.889 19.1607V24.4364L228.219 24.8989V50.5833L222.795 51.2902V25.6058Z" fill="#D4FF36"/>
<path d="M236.833 18.5149L242.619 17.7643L248.069 48L242.689 48.7025L241.903 43.5883L237.487 44.1643L236.658 49.488L231.273 50.1818L236.833 18.5149ZM241.249 39.0676L239.761 27.5563L238.185 39.4647L241.249 39.0676Z" fill="#D4FF36"/>
<path d="M249.901 16.8131L256.988 15.888C261.181 15.3425 264.114 17.8516 264.114 23.0705V30.1702C264.114 33.2815 263.106 35.6465 261.356 37.1913L264.245 45.888L258.428 46.6473L256.46 39.3644L255.325 39.5127V47.0487L249.901 47.7556V16.8131ZM256.285 34.2676C257.381 34.1236 258.777 33.6349 258.777 31.0036V23.808C258.777 21.2204 257.468 21.0415 256.285 21.1898L255.325 21.3164V34.3855L256.285 34.2676Z" fill="#D4FF36"/>
<path d="M44.5087 0.183254C44.48 0.181429 44.4512 0.185523 44.4242 0.195282C44.3972 0.205041 44.3725 0.220256 44.3516 0.239981L44.5087 0.183254Z" fill="#D4FF36"/>
<path d="M74.8844 28.5905C74.5528 28.0276 74.5397 28.2153 74.1644 27.6785C74.4044 26.8931 73.728 24.9993 73.4837 24.2444C73.3362 23.6788 73.1131 23.1357 72.8204 22.6298C71.4851 20.208 68.9717 18.0175 68.9717 18.0175L68.6793 17.9433L68.7186 17.8778C68.0771 17.7207 67.4357 17.5767 66.7898 17.4415C70.9004 12.9993 65.2538 7.40508 65.2538 7.40508C65.3804 12.1789 60.3142 11.1709 60.3142 11.1709C64.1149 6.14836 58.5426 3.13308 58.5426 3.13308C58.6691 9.03709 53.0968 7.9069 53.0968 7.9069C52.464 0.872721 43.8546 3.11563 43.8546 3.11563C46.512 3.98836 52.7171 10.2764 37.2699 10.7782C22.8437 11.2451 18.1353 17.52 17.5768 18.3491L16.416 18.5716L16.4684 18.6589L16.2938 18.6938C14.5658 19.44 11.856 23.1622 10.56 25.3091L10.5251 25.3571C9.26403 27.0676 8.86694 28.6735 8.97603 29.3367C7.96042 31.0385 7.18923 32.8747 6.68512 34.7913C3.19421 34.7913 0.270576 37.7498 0.113485 41.5549C-0.0523333 45.4385 2.73167 48.7113 6.30549 48.864C6.58212 48.8751 6.85919 48.8664 7.13458 48.8378C7.13458 48.8378 14.3215 73.6713 53.9084 68.3345C77.4328 65.1578 78.3448 42.5585 78.3448 42.5585C79.5333 40.9972 80.2059 39.1045 80.2691 37.1433C80.4262 33.0153 78.1091 29.4851 74.8844 28.5905ZM10.9528 28.6647C12.1833 26.8233 15.7789 20.9585 16.8568 20.3738C18.6895 20.016 32.5222 17.3847 47.4022 17.3847C55.3964 17.3847 62.3608 18.1353 68.1033 19.6102C69.3384 20.7451 70.4078 22.048 71.28 23.4807C71.4153 23.7295 72.432 26.5353 72.5106 26.6967C69.5782 26.64 58.848 26.5309 51.1288 26.3694C49.3004 26.3302 47.4589 26.3345 45.5913 26.3694C43.7911 25.5397 41.8178 25.1553 39.8378 25.2487C37.8578 25.3421 35.9293 25.9106 34.2153 26.9062C28.1891 27.312 21.8182 27.8705 14.9018 28.3331L10.9528 28.6647ZM46.9004 43.8153C45.0812 45.4767 42.696 46.3803 40.2326 46.3414C37.7692 46.3025 35.4138 45.3239 33.648 43.6058C32.7927 42.7749 32.1167 41.7774 31.6618 40.675C31.2069 39.5727 30.9828 38.3888 31.0032 37.1964C31.0236 36.0041 31.2882 34.8285 31.7807 33.7424C32.2731 32.6563 32.9829 31.6826 33.8662 30.8814C35.6847 29.2164 38.0718 28.3107 40.5371 28.3505C43.0025 28.3903 45.359 29.3724 47.1229 31.0953C47.9773 31.9265 48.6524 32.9239 49.1065 34.026C49.5606 35.1281 49.7841 36.3116 49.7633 37.5034C49.7424 38.6952 49.4777 39.8702 48.9853 40.9557C48.4929 42.0413 47.7833 43.0145 46.9004 43.8153ZM54.4713 57.888C47.7731 57.3644 47.6029 52.3287 47.6029 52.3287C47.6029 52.3287 52.0975 56.1076 59.7688 55.3396C61.7149 55.2068 63.6061 54.637 65.3018 53.6727C65.3018 53.6727 61.1651 58.4204 54.4713 57.888ZM76.56 42.3273C75.9644 43.0111 75.2257 43.5556 74.3962 43.9221C73.5667 44.2886 72.6667 44.4681 71.76 44.448C70.8595 44.4413 69.9716 44.2355 69.1599 43.8455C68.3482 43.4555 67.6327 42.8909 67.0648 42.192C65.8286 40.6976 65.1691 38.8095 65.2059 36.8704C65.2428 34.9313 65.9735 33.0697 67.2655 31.6233C67.8593 30.9454 68.5933 30.4047 69.4168 30.0386C70.2402 29.6725 71.1334 29.4898 72.0345 29.5031C72.9356 29.5164 73.823 29.7253 74.6353 30.1155C75.4476 30.5057 76.1654 31.0678 76.7389 31.7629C77.9745 33.2565 78.6341 35.1434 78.598 37.0815C78.562 39.0196 77.8328 40.8806 76.5426 42.3273H76.56Z" fill="#D4FF36"/>
</g>
<defs>
<clipPath id="clip0_369_823">
<rect width="277.527" height="72" fill="white"/>
</clipPath>
</defs>
</svg>
